<?xml version="1.0" encoding="UTF-8"?>
<svg width="180px" height="41px" viewBox="0 0 180 41" version="1.1" xmlns="http://www.w3.org/2000/svg" xmlns:xlink="http://www.w3.org/1999/xlink">
    <!-- Generator: sketchtool 58 (101010) - https://sketch.com -->
    <title>14DF75CF-D32B-42D1-B4D8-88E7EFD7930D</title>
    <desc>Created with sketchtool.</desc>
    <g id="Desktop" stroke="none" stroke-width="1" fill="none" fill-rule="evenodd">
        <g id="Home" transform="translate(-100.000000, -80.000000)" fill="#F2F4F3">
            <g id="Global-/-Header" transform="translate(100.000000, 80.000000)">
                <g id="Header">
                    <g id="Logo-Icons-/-Full-Logo">
                        <g id="Type" transform="translate(0.000000, -1.000000)">
                            <g id="Mark" transform="translate(0.000000, 0.043478)">
                                <path d="M0,23.2659732 C12.956087,21.1293177 23.9799457,12.8965418 29.6761957,1.09547157 L36.14625,1.09547157 C29.9592391,16.2180803 16.2578804,26.8820268 0,29.2074448 L0,23.2659732 Z" id="Fill-1"></path>
                                <path d="M0,13.1068853 C7.36905522,11.4622836 13.7901662,7.17242121 18.1816157,0.956521739 L25.2173913,0.956521739 C19.9656421,10.4766808 10.6730213,17.2137569 0,19.2173913 L0,13.1068853 Z" id="Fill-4"></path>
                                <path d="M0,1.14726087 L12.777971,1.14726087 C9.36231884,5.0116087 4.90550725,7.80465217 0,9.14378261 L0,1.14726087 Z" id="Fill-6"></path>
                                <path d="M29.6761957,41.8262017 C23.9799457,29.9152104 12.956087,21.6049496 0,19.4458887 L0,13.4484974 C16.2578804,15.7969496 29.9592391,26.5601148 36.14625,41.8262017 L29.6761957,41.8262017 Z" id="Fill-9"></path>
                                <path d="M18.0712411,41.8262011 C13.7063399,35.6996793 7.32404743,31.472288 -0.000458498024,29.8527772 L-0.000458498024,23.8301141 C10.6091858,25.805712 19.8456285,32.443538 25.0656285,41.8262011 L18.0712411,41.8262011 Z" id="Fill-12"></path>
                                <path d="M0,41.8261988 L0,34.3478137 C4.90550725,35.5999876 9.36231884,38.2127826 12.777971,41.8261988 L0,41.8261988 Z" id="Fill-15"></path>
                            </g>
                            <polygon id="Fill-18" points="64.4146521 18.6121118 72.1314537 11.4347826 78.7977151 11.4347826 70.4809383 19.0220497 80 30.5652174 73.4843161 30.5652174 66.7853712 22.3334369 64.4146521 24.5300207 64.4146521 30.5652174 59.1304348 30.5652174 59.1304348 11.4347826 64.4146521 11.4347826"></polygon>
                            <path d="M92.5492248,27.0379862 C95.6972131,27.0379862 98.17573,24.2671616 98.17573,20.955517 C98.17573,17.7024027 95.6972131,14.991279 92.5492248,14.991279 C89.4318215,14.991279 87.0133419,17.7024027 87.0133419,20.955517 C87.0133419,24.2671616 89.4318215,27.0379862 92.5492248,27.0379862 M92.5492248,10.5652174 C98.6118493,10.5652174 103.478261,15.2335944 103.478261,20.955517 C103.478261,26.7675762 98.6118493,31.4347826 92.5492248,31.4347826 C86.4888659,31.4347826 81.7391304,26.7675762 81.7391304,20.955517 C81.7391304,15.2335944 86.4888659,10.5652174 92.5492248,10.5652174" id="Fill-20"></path>
                            <polygon id="Fill-22" points="127.826087 11.4347826 118.704204 30.5652174 114.339274 30.5652174 105.217391 11.4347826 111.086056 11.4347826 116.505356 24.2369939 116.68557 24.2369939 122.135296 11.4347826"></polygon>
                            <polygon id="Fill-24" points="131.304348 30.5652174 136.521739 30.5652174 136.521739 11.4347826 131.304348 11.4347826"></polygon>
                            <polygon id="Fill-26" points="140.869565 11.4347826 159.130435 11.4347826 159.130435 15.7416642 152.651867 15.7416642 152.651867 30.5652174 147.378587 30.5652174 147.378587 15.7416642 140.869565 15.7416642"></polygon>
                            <polygon id="Fill-27" points="180 30.5652174 162.608696 30.5652174 162.608696 27.6647342 172.584988 15.7405254 163.166938 15.7405254 163.166938 11.4347826 180 11.4347826 180 14.3352658 170.053451 26.2583358 180 26.2583358"></polygon>
                        </g>
                    </g>
                </g>
            </g>
        </g>
    </g>
</svg>